<?xml version="1.0" encoding="UTF-8" standalone="no"?><!DOCTYPE svg PUBLIC "-//W3C//DTD SVG 1.1//EN" "http://www.w3.org/Graphics/SVG/1.1/DTD/svg11.dtd"><!-- Generated by graphviz version 2.40.1 (20161225.0304)
 --><!-- Title: %0 Pages: 1 --><svg xmlns="http://www.w3.org/2000/svg" xmlns:xlink="http://www.w3.org/1999/xlink" width="720pt" height="284pt" viewBox="0.00 0.00 719.80 284.11">
<g id="graph0" class="graph" transform="scale(1 1) rotate(0) translate(4 280.1144)">
<title>%0</title>
<polygon fill="#ffffff" stroke="transparent" points="-4,4 -4,-280.1144 715.8,-280.1144 715.8,4 -4,4"/>
<!-- SLAB_ALLOCATOR_START -->
<g id="node1" class="node">
<title>SLAB_ALLOCATOR_START</title>
<ellipse fill="#ffffff" stroke="#000000" cx="1.8" cy="-234" rx="1.8" ry="1.8"/>
</g>
<!-- SLAB_GROUP_1 -->
<g id="node2" class="node">
<title>SLAB_GROUP_1</title>
<polygon fill="#d3d3d3" stroke="#000000" points="134.5176,-252 21.0824,-252 21.0824,-216 134.5176,-216 134.5176,-252"/>
<text text-anchor="middle" x="77.8" y="-229.8" font-family="Times,serif" font-size="14.00" fill="#000000">SLAB GROUP 1</text>
</g>
<!-- SLAB_ALLOCATOR_START&#45;&gt;SLAB_GROUP_1 -->
<g id="edge4" class="edge">
<title>SLAB_ALLOCATOR_START-&gt;SLAB_GROUP_1</title>
<path fill="none" stroke="#000000" d="M3.8781,-234C6.1852,-234 8.4922,-234 10.7993,-234"/>
<polygon fill="#000000" stroke="#000000" points="10.9148,-237.5001 20.9148,-234 10.9148,-230.5001 10.9148,-237.5001"/>
</g>
<!-- SLAB_GROUP_2 -->
<g id="node3" class="node">
<title>SLAB_GROUP_2</title>
<polygon fill="#d3d3d3" stroke="#000000" points="346.5176,-252 233.0824,-252 233.0824,-216 346.5176,-216 346.5176,-252"/>
<text text-anchor="middle" x="289.8" y="-229.8" font-family="Times,serif" font-size="14.00" fill="#000000">SLAB GROUP 2</text>
</g>
<!-- SLAB_GROUP_1&#45;&gt;SLAB_GROUP_2 -->
<g id="edge5" class="edge">
<title>SLAB_GROUP_1-&gt;SLAB_GROUP_2</title>
<path fill="none" stroke="#000000" d="M107.2543,-252.1389C120.3816,-259.1995 136.3463,-266.4404 151.8,-270 179.5186,-276.3847 188.0814,-276.3847 215.8,-270 227.8732,-267.2191 240.2583,-262.1913 251.3586,-256.7579"/>
<polygon fill="#000000" stroke="#000000" points="253.0515,-259.8231 260.3457,-252.1389 249.8517,-253.5973 253.0515,-259.8231"/>
</g>
<!-- SLAB_CACHE_1 -->
<g id="node6" class="node">
<title>SLAB_CACHE_1</title>
<polygon fill="none" stroke="transparent" points="215.7405,-252 151.8595,-252 151.8595,-216 215.7405,-216 215.7405,-252"/>
<polyline fill="none" stroke="#000000" points="151.8595,-216 215.7405,-216 "/>
<text text-anchor="middle" x="183.8" y="-229.8" font-family="Times,serif" font-size="14.00" fill="#000000">CACHE</text>
</g>
<!-- SLAB_GROUP_1&#45;&gt;SLAB_CACHE_1 -->
<g id="edge1" class="edge">
<title>SLAB_GROUP_1-&gt;SLAB_CACHE_1</title>
<path fill="none" stroke="#000000" d="M134.5266,-234C136.9626,-234 139.3986,-234 141.8346,-234"/>
<polygon fill="#000000" stroke="#000000" points="141.8493,-237.5001 151.8493,-234 141.8492,-230.5001 141.8493,-237.5001"/>
</g>
<!-- SLAB_META_1a -->
<g id="node9" class="node">
<title>SLAB_META_1a</title>
<polygon fill="none" stroke="#000000" points="130.7357,-180 24.8643,-180 24.8643,-144 130.7357,-144 130.7357,-180"/>
<text text-anchor="middle" x="77.8" y="-157.8" font-family="Times,serif" font-size="14.00" fill="#000000">SLAB META 1</text>
</g>
<!-- SLAB_GROUP_1&#45;&gt;SLAB_META_1a -->
<g id="edge8" class="edge">
<title>SLAB_GROUP_1-&gt;SLAB_META_1a</title>
<path fill="none" stroke="#000000" d="M77.8,-215.8314C77.8,-208.131 77.8,-198.9743 77.8,-190.4166"/>
<polygon fill="#000000" stroke="#000000" points="81.3001,-190.4132 77.8,-180.4133 74.3001,-190.4133 81.3001,-190.4132"/>
</g>
<!-- SLAB_GROUP_3 -->
<g id="node4" class="node">
<title>SLAB_GROUP_3</title>
<polygon fill="#d3d3d3" stroke="#000000" points="558.5176,-252 445.0824,-252 445.0824,-216 558.5176,-216 558.5176,-252"/>
<text text-anchor="middle" x="501.8" y="-229.8" font-family="Times,serif" font-size="14.00" fill="#000000">SLAB GROUP 3</text>
</g>
<!-- SLAB_GROUP_2&#45;&gt;SLAB_GROUP_3 -->
<g id="edge6" class="edge">
<title>SLAB_GROUP_2-&gt;SLAB_GROUP_3</title>
<path fill="none" stroke="#000000" d="M319.2543,-252.1389C332.3816,-259.1995 348.3463,-266.4404 363.8,-270 391.5186,-276.3847 400.0814,-276.3847 427.8,-270 439.8732,-267.2191 452.2583,-262.1913 463.3586,-256.7579"/>
<polygon fill="#000000" stroke="#000000" points="465.0515,-259.8231 472.3457,-252.1389 461.8517,-253.5973 465.0515,-259.8231"/>
</g>
<!-- SLAB_CACHE_2 -->
<g id="node7" class="node">
<title>SLAB_CACHE_2</title>
<polygon fill="none" stroke="transparent" points="427.7405,-252 363.8595,-252 363.8595,-216 427.7405,-216 427.7405,-252"/>
<polyline fill="none" stroke="#000000" points="363.8595,-216 427.7405,-216 "/>
<text text-anchor="middle" x="395.8" y="-229.8" font-family="Times,serif" font-size="14.00" fill="#000000">CACHE</text>
</g>
<!-- SLAB_GROUP_2&#45;&gt;SLAB_CACHE_2 -->
<g id="edge2" class="edge">
<title>SLAB_GROUP_2-&gt;SLAB_CACHE_2</title>
<path fill="none" stroke="#000000" d="M346.5266,-234C348.9626,-234 351.3986,-234 353.8346,-234"/>
<polygon fill="#000000" stroke="#000000" points="353.8493,-237.5001 363.8493,-234 353.8492,-230.5001 353.8493,-237.5001"/>
</g>
<!-- SLAB_META_2a -->
<g id="node10" class="node">
<title>SLAB_META_2a</title>
<polygon fill="none" stroke="#000000" points="342.7357,-180 236.8643,-180 236.8643,-144 342.7357,-144 342.7357,-180"/>
<text text-anchor="middle" x="289.8" y="-157.8" font-family="Times,serif" font-size="14.00" fill="#000000">SLAB META 1</text>
</g>
<!-- SLAB_GROUP_2&#45;&gt;SLAB_META_2a -->
<g id="edge11" class="edge">
<title>SLAB_GROUP_2-&gt;SLAB_META_2a</title>
<path fill="none" stroke="#000000" d="M289.8,-215.8314C289.8,-208.131 289.8,-198.9743 289.8,-190.4166"/>
<polygon fill="#000000" stroke="#000000" points="293.3001,-190.4132 289.8,-180.4133 286.3001,-190.4133 293.3001,-190.4132"/>
</g>
<!-- SLAB_GROUP_ETC -->
<g id="node5" class="node">
<title>SLAB_GROUP_ETC</title>
<polygon fill="#d3d3d3" stroke="#000000" points="711.8,-252 657.8,-252 657.8,-216 711.8,-216 711.8,-252"/>
<text text-anchor="middle" x="684.8" y="-229.8" font-family="Times,serif" font-size="14.00" fill="#000000">...</text>
</g>
<!-- SLAB_GROUP_3&#45;&gt;SLAB_GROUP_ETC -->
<g id="edge7" class="edge">
<title>SLAB_GROUP_3-&gt;SLAB_GROUP_ETC</title>
<path fill="none" stroke="#000000" d="M531.2543,-252.1389C544.3816,-259.1995 560.3463,-266.4404 575.8,-270 603.5186,-276.3847 612.959,-279.4153 639.8,-270 646.9397,-267.4955 653.7881,-263.3291 659.8943,-258.7013"/>
<polygon fill="#000000" stroke="#000000" points="662.2521,-261.293 667.7185,-252.2173 657.7855,-255.9032 662.2521,-261.293"/>
</g>
<!-- SLAB_CACHE_3 -->
<g id="node8" class="node">
<title>SLAB_CACHE_3</title>
<polygon fill="none" stroke="transparent" points="639.7405,-252 575.8595,-252 575.8595,-216 639.7405,-216 639.7405,-252"/>
<polyline fill="none" stroke="#000000" points="575.8595,-216 639.7405,-216 "/>
<text text-anchor="middle" x="607.8" y="-229.8" font-family="Times,serif" font-size="14.00" fill="#000000">CACHE</text>
</g>
<!-- SLAB_GROUP_3&#45;&gt;SLAB_CACHE_3 -->
<g id="edge3" class="edge">
<title>SLAB_GROUP_3-&gt;SLAB_CACHE_3</title>
<path fill="none" stroke="#000000" d="M558.5266,-234C560.9626,-234 563.3986,-234 565.8346,-234"/>
<polygon fill="#000000" stroke="#000000" points="565.8493,-237.5001 575.8493,-234 565.8492,-230.5001 565.8493,-237.5001"/>
</g>
<!-- SLAB_META_3a -->
<g id="node11" class="node">
<title>SLAB_META_3a</title>
<polygon fill="none" stroke="#000000" points="554.7357,-180 448.8643,-180 448.8643,-144 554.7357,-144 554.7357,-180"/>
<text text-anchor="middle" x="501.8" y="-157.8" font-family="Times,serif" font-size="14.00" fill="#000000">SLAB META 1</text>
</g>
<!-- SLAB_GROUP_3&#45;&gt;SLAB_META_3a -->
<g id="edge14" class="edge">
<title>SLAB_GROUP_3-&gt;SLAB_META_3a</title>
<path fill="none" stroke="#000000" d="M501.8,-215.8314C501.8,-208.131 501.8,-198.9743 501.8,-190.4166"/>
<polygon fill="#000000" stroke="#000000" points="505.3001,-190.4132 501.8,-180.4133 498.3001,-190.4133 505.3001,-190.4132"/>
</g>
<!-- SLAB_META_1b -->
<g id="node12" class="node">
<title>SLAB_META_1b</title>
<polygon fill="none" stroke="#000000" points="130.7357,-108 24.8643,-108 24.8643,-72 130.7357,-72 130.7357,-108"/>
<text text-anchor="middle" x="77.8" y="-85.8" font-family="Times,serif" font-size="14.00" fill="#000000">SLAB META 2</text>
</g>
<!-- SLAB_META_1a&#45;&gt;SLAB_META_1b -->
<g id="edge9" class="edge">
<title>SLAB_META_1a-&gt;SLAB_META_1b</title>
<path fill="none" stroke="#000000" d="M77.8,-143.8314C77.8,-136.131 77.8,-126.9743 77.8,-118.4166"/>
<polygon fill="#000000" stroke="#000000" points="81.3001,-118.4132 77.8,-108.4133 74.3001,-118.4133 81.3001,-118.4132"/>
</g>
<!-- slab11 -->
<g id="node18" class="node">
<title>slab11</title>
<polygon fill="none" stroke="#000000" points="201.3626,-180 148.2374,-180 148.2374,-144 207.3626,-144 207.3626,-174 201.3626,-180"/>
<polyline fill="none" stroke="#000000" points="201.3626,-180 201.3626,-174 "/>
<polyline fill="none" stroke="#000000" points="207.3626,-174 201.3626,-174 "/>
<text text-anchor="middle" x="177.8" y="-157.8" font-family="Times,serif" font-size="14.00" fill="#000000">SLABS</text>
</g>
<!-- SLAB_META_1a&#45;&gt;slab11 -->
<g id="edge17" class="edge">
<title>SLAB_META_1a-&gt;slab11</title>
<path fill="none" stroke="#000000" d="M130.5344,-162C132.975,-162 135.4156,-162 137.8562,-162"/>
<polygon fill="#000000" stroke="#000000" points="137.8898,-165.5001 147.8897,-162 137.8897,-158.5001 137.8898,-165.5001"/>
</g>
<!-- SLAB_META_2b -->
<g id="node13" class="node">
<title>SLAB_META_2b</title>
<polygon fill="none" stroke="#000000" points="342.7357,-108 236.8643,-108 236.8643,-72 342.7357,-72 342.7357,-108"/>
<text text-anchor="middle" x="289.8" y="-85.8" font-family="Times,serif" font-size="14.00" fill="#000000">SLAB META 2</text>
</g>
<!-- SLAB_META_2a&#45;&gt;SLAB_META_2b -->
<g id="edge12" class="edge">
<title>SLAB_META_2a-&gt;SLAB_META_2b</title>
<path fill="none" stroke="#000000" d="M289.8,-143.8314C289.8,-136.131 289.8,-126.9743 289.8,-118.4166"/>
<polygon fill="#000000" stroke="#000000" points="293.3001,-118.4132 289.8,-108.4133 286.3001,-118.4133 293.3001,-118.4132"/>
</g>
<!-- slab21 -->
<g id="node20" class="node">
<title>slab21</title>
<polygon fill="none" stroke="#000000" points="413.3626,-180 360.2374,-180 360.2374,-144 419.3626,-144 419.3626,-174 413.3626,-180"/>
<polyline fill="none" stroke="#000000" points="413.3626,-180 413.3626,-174 "/>
<polyline fill="none" stroke="#000000" points="419.3626,-174 413.3626,-174 "/>
<text text-anchor="middle" x="389.8" y="-157.8" font-family="Times,serif" font-size="14.00" fill="#000000">SLABS</text>
</g>
<!-- SLAB_META_2a&#45;&gt;slab21 -->
<g id="edge19" class="edge">
<title>SLAB_META_2a-&gt;slab21</title>
<path fill="none" stroke="#000000" d="M342.5344,-162C344.975,-162 347.4156,-162 349.8562,-162"/>
<polygon fill="#000000" stroke="#000000" points="349.8898,-165.5001 359.8897,-162 349.8897,-158.5001 349.8898,-165.5001"/>
</g>
<!-- SLAB_META_3b -->
<g id="node14" class="node">
<title>SLAB_META_3b</title>
<polygon fill="none" stroke="#000000" points="554.7357,-108 448.8643,-108 448.8643,-72 554.7357,-72 554.7357,-108"/>
<text text-anchor="middle" x="501.8" y="-85.8" font-family="Times,serif" font-size="14.00" fill="#000000">SLAB META 2</text>
</g>
<!-- SLAB_META_3a&#45;&gt;SLAB_META_3b -->
<g id="edge15" class="edge">
<title>SLAB_META_3a-&gt;SLAB_META_3b</title>
<path fill="none" stroke="#000000" d="M501.8,-143.8314C501.8,-136.131 501.8,-126.9743 501.8,-118.4166"/>
<polygon fill="#000000" stroke="#000000" points="505.3001,-118.4132 501.8,-108.4133 498.3001,-118.4133 505.3001,-118.4132"/>
</g>
<!-- slab31 -->
<g id="node22" class="node">
<title>slab31</title>
<polygon fill="none" stroke="#000000" points="625.3626,-180 572.2374,-180 572.2374,-144 631.3626,-144 631.3626,-174 625.3626,-180"/>
<polyline fill="none" stroke="#000000" points="625.3626,-180 625.3626,-174 "/>
<polyline fill="none" stroke="#000000" points="631.3626,-174 625.3626,-174 "/>
<text text-anchor="middle" x="601.8" y="-157.8" font-family="Times,serif" font-size="14.00" fill="#000000">SLABS</text>
</g>
<!-- SLAB_META_3a&#45;&gt;slab31 -->
<g id="edge21" class="edge">
<title>SLAB_META_3a-&gt;slab31</title>
<path fill="none" stroke="#000000" d="M554.5344,-162C556.975,-162 559.4156,-162 561.8562,-162"/>
<polygon fill="#000000" stroke="#000000" points="561.8898,-165.5001 571.8897,-162 561.8897,-158.5001 561.8898,-165.5001"/>
</g>
<!-- SLAB_META_1etc -->
<g id="node15" class="node">
<title>SLAB_META_1etc</title>
<polygon fill="none" stroke="#000000" points="104.8,-36 50.8,-36 50.8,0 104.8,0 104.8,-36"/>
<text text-anchor="middle" x="77.8" y="-13.8" font-family="Times,serif" font-size="14.00" fill="#000000">...</text>
</g>
<!-- SLAB_META_1b&#45;&gt;SLAB_META_1etc -->
<g id="edge10" class="edge">
<title>SLAB_META_1b-&gt;SLAB_META_1etc</title>
<path fill="none" stroke="#000000" d="M77.8,-71.8314C77.8,-64.131 77.8,-54.9743 77.8,-46.4166"/>
<polygon fill="#000000" stroke="#000000" points="81.3001,-46.4132 77.8,-36.4133 74.3001,-46.4133 81.3001,-46.4132"/>
</g>
<!-- slab12 -->
<g id="node19" class="node">
<title>slab12</title>
<polygon fill="none" stroke="#000000" points="201.3626,-108 148.2374,-108 148.2374,-72 207.3626,-72 207.3626,-102 201.3626,-108"/>
<polyline fill="none" stroke="#000000" points="201.3626,-108 201.3626,-102 "/>
<polyline fill="none" stroke="#000000" points="207.3626,-102 201.3626,-102 "/>
<text text-anchor="middle" x="177.8" y="-85.8" font-family="Times,serif" font-size="14.00" fill="#000000">SLABS</text>
</g>
<!-- SLAB_META_1b&#45;&gt;slab12 -->
<g id="edge18" class="edge">
<title>SLAB_META_1b-&gt;slab12</title>
<path fill="none" stroke="#000000" d="M130.5344,-90C132.975,-90 135.4156,-90 137.8562,-90"/>
<polygon fill="#000000" stroke="#000000" points="137.8898,-93.5001 147.8897,-90 137.8897,-86.5001 137.8898,-93.5001"/>
</g>
<!-- SLAB_META_2etc -->
<g id="node16" class="node">
<title>SLAB_META_2etc</title>
<polygon fill="none" stroke="#000000" points="316.8,-36 262.8,-36 262.8,0 316.8,0 316.8,-36"/>
<text text-anchor="middle" x="289.8" y="-13.8" font-family="Times,serif" font-size="14.00" fill="#000000">...</text>
</g>
<!-- SLAB_META_2b&#45;&gt;SLAB_META_2etc -->
<g id="edge13" class="edge">
<title>SLAB_META_2b-&gt;SLAB_META_2etc</title>
<path fill="none" stroke="#000000" d="M289.8,-71.8314C289.8,-64.131 289.8,-54.9743 289.8,-46.4166"/>
<polygon fill="#000000" stroke="#000000" points="293.3001,-46.4132 289.8,-36.4133 286.3001,-46.4133 293.3001,-46.4132"/>
</g>
<!-- slab22 -->
<g id="node21" class="node">
<title>slab22</title>
<polygon fill="none" stroke="#000000" points="413.3626,-108 360.2374,-108 360.2374,-72 419.3626,-72 419.3626,-102 413.3626,-108"/>
<polyline fill="none" stroke="#000000" points="413.3626,-108 413.3626,-102 "/>
<polyline fill="none" stroke="#000000" points="419.3626,-102 413.3626,-102 "/>
<text text-anchor="middle" x="389.8" y="-85.8" font-family="Times,serif" font-size="14.00" fill="#000000">SLABS</text>
</g>
<!-- SLAB_META_2b&#45;&gt;slab22 -->
<g id="edge20" class="edge">
<title>SLAB_META_2b-&gt;slab22</title>
<path fill="none" stroke="#000000" d="M342.5344,-90C344.975,-90 347.4156,-90 349.8562,-90"/>
<polygon fill="#000000" stroke="#000000" points="349.8898,-93.5001 359.8897,-90 349.8897,-86.5001 349.8898,-93.5001"/>
</g>
<!-- SLAB_META_3etc -->
<g id="node17" class="node">
<title>SLAB_META_3etc</title>
<polygon fill="none" stroke="#000000" points="528.8,-36 474.8,-36 474.8,0 528.8,0 528.8,-36"/>
<text text-anchor="middle" x="501.8" y="-13.8" font-family="Times,serif" font-size="14.00" fill="#000000">...</text>
</g>
<!-- SLAB_META_3b&#45;&gt;SLAB_META_3etc -->
<g id="edge16" class="edge">
<title>SLAB_META_3b-&gt;SLAB_META_3etc</title>
<path fill="none" stroke="#000000" d="M501.8,-71.8314C501.8,-64.131 501.8,-54.9743 501.8,-46.4166"/>
<polygon fill="#000000" stroke="#000000" points="505.3001,-46.4132 501.8,-36.4133 498.3001,-46.4133 505.3001,-46.4132"/>
</g>
<!-- slab32 -->
<g id="node23" class="node">
<title>slab32</title>
<polygon fill="none" stroke="#000000" points="625.3626,-108 572.2374,-108 572.2374,-72 631.3626,-72 631.3626,-102 625.3626,-108"/>
<polyline fill="none" stroke="#000000" points="625.3626,-108 625.3626,-102 "/>
<polyline fill="none" stroke="#000000" points="631.3626,-102 625.3626,-102 "/>
<text text-anchor="middle" x="601.8" y="-85.8" font-family="Times,serif" font-size="14.00" fill="#000000">SLABS</text>
</g>
<!-- SLAB_META_3b&#45;&gt;slab32 -->
<g id="edge22" class="edge">
<title>SLAB_META_3b-&gt;slab32</title>
<path fill="none" stroke="#000000" d="M554.5344,-90C556.975,-90 559.4156,-90 561.8562,-90"/>
<polygon fill="#000000" stroke="#000000" points="561.8898,-93.5001 571.8897,-90 561.8897,-86.5001 561.8898,-93.5001"/>
</g>
</g>
</svg>